<?xml version="1.0" encoding="utf-8"?>
<!-- Generator: Adobe Illustrator 24.0.1, SVG Export Plug-In . SVG Version: 6.00 Build 0)  -->
<svg version="1.1" id="Laag_1" xmlns="http://www.w3.org/2000/svg" xmlns:xlink="http://www.w3.org/1999/xlink" x="0px" y="0px"
	 viewBox="0 0 200 37.6" style="enable-background:new 0 0 200 37.6;" xml:space="preserve">
<style type="text/css">
	.st0{fill:#FFFFFF;}
	.st1{fill:#F6F6F6;}
</style>
<g>
	<path class="st0" d="M23.3,16.1v8.6h-14v12.5H0V0.8h25.3v8.7h-16v6.5H23.3z"/>
	<path class="st0" d="M86.5,24.8V0.7h9.3v24.2c-0.1,17-29,17-29,0V0.7h9.3v24.2C76.1,30.7,86.4,30.7,86.5,24.8z"/>
	<path class="st0" d="M122,26.1c0.1-2.1-3.2-3.2-6.2-3.6c-5.8-0.9-11.2-4.6-11.2-11.5c0-7.1,6.5-10.9,13.1-10.9
		c4.4,0,8.7,1.2,12.4,5.8l-6,4.6c-3.8-4.1-10.3-3.9-10.5,0.3c0.1,1.7,2,2.8,4.8,3.4c6.5,1.2,12.9,3.4,12.5,12.4
		c-0.3,7-7.7,10.9-14.4,10.9c-4.4,0-9-2.2-12.4-6.6l5.8-5.4C113.7,29.8,121.7,30,122,26.1z"/>
	<path class="st0" d="M190.5,16.2c4.7,0,9.5,2.3,9.5,7v7c0,4.7-4.7,7-9.4,7c-4.7,0-9.5-2.3-9.5-7v-7
		C181.1,18.5,185.8,16.2,190.5,16.2z M190.6,32.5c1.8,0,3.7-0.8,3.7-2.2v-7c0-1.6-1.9-2.3-3.8-2.3c-1.8,0-3.6,0.8-3.6,2.3v7
		C186.9,31.8,188.7,32.5,190.6,32.5z"/>
	<circle class="st1" cx="175.3" cy="35.4" r="1.9"/>
	<g>
		<polygon class="st0" points="43.6,0.7 34.4,0.7 34.4,9.9 43.6,14.4 		"/>
		<polygon class="st0" points="43.6,27.9 43.6,20.7 34.4,16.2 34.4,37 58.4,37 58.4,27.9 		"/>
	</g>
	<polygon class="st0" points="139.5,37 148.7,37 148.7,33.6 139.5,28.7 	"/>
	<polygon class="st0" points="159.2,0.7 159.2,14.4 148.7,14.4 148.7,0.7 139.5,0.7 139.5,22.3 148.7,27.3 148.7,23.3 159.2,23.3 
		159.2,37 168.4,37 168.4,0.7 	"/>
</g>
</svg>
